<svg width="900" height="793" viewBox="0 0 900 793" fill="none" xmlns="http://www.w3.org/2000/svg">
<g filter="url(#filter0_f_64_153)">
<path fill-rule="evenodd" clip-rule="evenodd" d="M524.587 170.146C575.462 175.107 632.129 151.475 675.136 178.263C718.112 205.032 723.876 262.5 745.121 307.511C764.369 348.292 782.849 387.409 794.353 430.843C808.999 486.137 858.317 552.247 821.815 597.065C782.949 644.785 696.442 598.568 638.584 622.098C591.387 641.293 573.511 703.356 524.587 717.944C471.486 733.777 412.954 724.626 361.311 704.775C305.499 683.321 236.178 657.094 220.338 600.991C203.625 541.797 281.915 492.179 283.968 430.843C285.915 372.686 217.278 323.476 231.521 266.948C245.601 211.062 299.25 165.662 355.461 147.095C410.279 128.988 466.961 164.528 524.587 170.146Z" fill="url(#paint0_linear_64_153)"/>
</g>
<defs>
<filter id="filter0_f_64_153" x="0" y="-76" width="1053" height="1020" filterUnits="userSpaceOnUse" color-interpolation-filters="sRGB">
<feFlood flood-opacity="0" result="BackgroundImageFix"/>
<feBlend mode="normal" in="SourceGraphic" in2="BackgroundImageFix" result="shape"/>
<feGaussianBlur stdDeviation="109" result="effect1_foregroundBlur_64_153"/>
</filter>
<linearGradient id="paint0_linear_64_153" x1="-58.1118" y1="436.996" x2="497.389" y2="1023.89" gradientUnits="userSpaceOnUse">
<stop offset="0.155" stop-color="#FEFFBE"/>
<stop offset="0.785" stop-color="#CB4918"/>
</linearGradient>
</defs>
</svg>
